<?xml version="1.0" encoding="UTF-8"?>
<svg width="1200pt" height="1200pt" version="1.1" viewBox="0 0 1200 1200" xmlns="http://www.w3.org/2000/svg">
 <path d="m600 24c-13.266 0-24 10.734-24 24v96c0 13.266 10.734 24 24 24s24-10.734 24-24v-96c0-13.266-10.734-24-24-24zm-339.37 140.63c-6.1406 0-12.188 2.4375-16.875 7.125-9.375 9.375-9.375 24.375 0 33.75l67.875 67.875c9.375 9.375 24.375 9.375 33.75 0s9.375-24.375 0-33.75l-67.875-67.875c-4.6875-4.6875-10.734-7.125-16.875-7.125zm678.74 0c-6.1406 0-12.188 2.4375-16.875 7.125l-67.875 67.875c-9.375 9.375-9.375 24.375 0 33.75s24.375 9.375 33.75 0l67.875-67.875c9.375-9.375 9.375-24.375 0-33.75-4.6875-4.6875-10.734-7.125-16.875-7.125zm-339.37 75.375c-146.34 0-288 113.53-288 274.13 0 196.5 138.71 246.47 154.5 373.87h267c15.797-127.4 154.5-177.37 154.5-373.87 0-160.6-141.66-274.13-288-274.13zm-73.875 72.75h0.375c0.60938-0.046875 1.2656-0.046875 1.875 0 11.578 0.046875 21.469 8.3906 23.531 19.828 2.0156 11.391-4.4062 22.641-15.281 26.672-58.5 22.031-102.42 73.828-113.62 136.87-2.3906 13.031-14.906 21.703-27.938 19.312s-21.703-14.906-19.312-27.938c14.203-79.828 69.469-144.89 143.63-172.87 2.1562-0.9375 4.4062-1.5938 6.75-1.875zm-406.13 191.26c-13.266 0-24 10.734-24 24s10.734 24 24 24h96c13.266 0 24-10.734 24-24s-10.734-24-24-24zm864 0c-13.266 0-24 10.734-24 24s10.734 24 24 24h96c13.266 0 24-10.734 24-24s-10.734-24-24-24zm-516 432v48h264v-48zm0 96v24c0 27.562 22.688 48 48 48h168c25.312 0 48-20.438 48-48v-24zm84 96c0 26.578 21.422 48 48 48s48-21.422 48-48z"/>
</svg>
